<svg xmlns="http://www.w3.org/2000/svg" viewBox="0 0 1489.654 489.89"><defs/><g stroke-linecap="round"><path fill="#fff" stroke-width="0" d="M10 10h1469.65v469.89H10"/><path fill="none" stroke="#000" stroke-width="4" d="M10 10h1469.65M10 10h1469.65m0 0v469.89m0-469.89v469.89m0 0H10m1469.65 0H10m0 0V10m0 469.89V10"/></g><g stroke-linecap="round"><path fill="#ced4da" stroke-width="0" d="M60.303 294.498h177.03v133.37H60.303"/><path fill="none" stroke="#000" stroke-width="4" d="M60.303 294.498h177.03m-177.03 0h177.03m0 0v133.37m0-133.37v133.37m0 0H60.303m177.03 0H60.303m0 0v-133.37m0 133.37v-133.37"/></g><g stroke-linecap="round"><path fill="#ced4da" stroke-width="0" d="M1258.034 294.192h177.03v133.37h-177.03"/><path fill="none" stroke="#000" stroke-width="4" d="M1258.034 294.192h177.03m-177.03 0h177.03m0 0v133.37m0-133.37v133.37m0 0h-177.03m177.03 0h-177.03m0 0v-133.37m0 133.37v-133.37"/></g><text x="38" y="33" font-family="Helvetica, Segoe UI Emoji" font-size="36" style="white-space:pre" text-anchor="middle" transform="translate(110.818 340.683)">Host</text><g stroke-linecap="round"><path fill="#fab005" stroke-width="0" d="M994.87 66.693h177.03v133.37H994.87"/><path fill="none" stroke="#000" stroke-width="4" d="M994.87 66.693h177.03m-177.03 0h177.03m0 0v133.37m0-133.37v133.37m0 0H994.87m177.03 0H994.87m0 0V66.693m0 133.37V66.693"/></g><g stroke-linecap="round"><path fill="none" stroke="#087f5b" stroke-width="4" d="M1340.465 275.83c-.03-47.64-.07-95.28-.1-145.41m.1 145.41c-.02-34.19-.05-68.38-.1-145.41m0 0h-145.95m145.95 0h-145.95"/><path fill="#087f5b" fill-rule="evenodd" stroke-width="0" d="m1194.415 130.42 13.59-6.34v12.68l-13.59-6.34"/><path fill="none" stroke="#087f5b" stroke-width="4" d="M1194.415 130.42c4.45-2.08 8.91-4.15 13.59-6.34m-13.59 6.34c3.2-1.49 6.39-2.98 13.59-6.34m0 0v12.68m0-12.68v12.68m0 0c-4.3-2.01-8.6-4.01-13.59-6.34m13.59 6.34c-4.02-1.88-8.05-3.76-13.59-6.34m0 0s0 0 0 0m0 0s0 0 0 0"/></g><g stroke-linecap="round"><path fill="none" stroke="#087f5b" stroke-width="4" d="M974.943 130.212h-184.14m184.14 0h-184.14m0 0v135.73m0-135.73v135.73"/><path fill="#087f5b" fill-rule="evenodd" stroke-width="0" d="m790.803 265.942-6.34-13.6h12.67l-6.33 13.6"/><path fill="none" stroke="#087f5b" stroke-width="4" d="M790.803 265.942c-1.52-3.24-3.03-6.49-6.34-13.6m6.34 13.6c-1.62-3.46-3.23-6.91-6.34-13.6m0 0h12.67m-12.67 0h12.67m0 0c-2.19 4.71-4.39 9.42-6.33 13.6m6.33-13.6c-1.66 3.58-3.33 7.16-6.33 13.6m0 0s0 0 0 0m0 0s0 0 0 0"/></g><g stroke-linecap="round"><path fill="none" stroke="#364fc7" stroke-width="4" d="M257.154 381.384h90.98m-90.98 0h90.98"/><path fill="#364fc7" fill-rule="evenodd" stroke-width="0" d="m348.134 381.384-13.59 6.34v-12.68l13.59 6.34"/><path fill="none" stroke="#364fc7" stroke-width="4" d="M348.134 381.384c-4.85 2.26-9.69 4.52-13.59 6.34m13.59-6.34-13.59 6.34m0 0v-12.68m0 12.68v-12.68m0 0c4.92 2.3 9.84 4.59 13.59 6.34m-13.59-6.34c3.98 1.86 7.96 3.72 13.59 6.34m0 0s0 0 0 0m0 0s0 0 0 0"/></g><g stroke-linecap="round"><path fill="none" stroke="#087f5b" stroke-width="4" d="M345.844 329.287h-89.69m89.69 0h-89.69"/><path fill="#087f5b" fill-rule="evenodd" stroke-width="0" d="m256.154 329.287 13.6-6.34v12.68l-13.6-6.34"/><path fill="none" stroke="#087f5b" stroke-width="4" d="M256.154 329.287c3.19-1.49 6.38-2.97 13.6-6.34m-13.6 6.34c2.85-1.33 5.69-2.65 13.6-6.34m0 0v12.68m0-12.68v12.68m0 0c-4.19-1.96-8.38-3.91-13.6-6.34m13.6 6.34-13.6-6.34m0 0s0 0 0 0m0 0s0 0 0 0"/></g><text x="49" y="33" font-family="Helvetica, Segoe UI Emoji" font-size="36" style="white-space:pre" text-anchor="middle" transform="translate(1297.55 340.378)">Guest</text><text x="51" y="33" font-family="Helvetica, Segoe UI Emoji" font-size="36" style="white-space:pre" text-anchor="middle" transform="translate(1032.385 112.879)">Action</text><g stroke-linecap="round"><path fill="#15aabf" stroke-width="0" d="M646.235 293.051h244v134h-244"/><path fill="none" stroke="#000" stroke-width="4" d="M646.235 293.051h244m-244 0h244m0 0v134m0-134v134m0 0h-244m244 0h-244m0 0v-134m0 134v-134"/></g><text x="61" y="33" font-family="Helvetica, Segoe UI Emoji" font-size="36" style="white-space:pre" text-anchor="middle" transform="translate(707.235 339.551)">Esdeka</text><g stroke-linecap="round"><path fill="none" stroke="#364fc7" stroke-width="4" d="M1187.302 365.654h53.3m-53.3 0h53.3"/><path fill="#364fc7" fill-rule="evenodd" stroke-width="0" d="m1240.602 365.654-13.59 6.34v-12.68l13.59 6.34"/><path fill="none" stroke="#364fc7" stroke-width="4" d="M1240.602 365.654c-4.65 2.17-9.3 4.34-13.59 6.34m13.59-6.34c-5.19 2.42-10.39 4.85-13.59 6.34m0 0v-12.68m0 12.68v-12.68m0 0c4.33 2.02 8.65 4.04 13.59 6.34m-13.59-6.34c2.96 1.38 5.91 2.76 13.59 6.34m0 0s0 0 0 0m0 0s0 0 0 0"/></g><g stroke-linecap="round"><path fill="#fd7e14" stroke-width="0" d="M994.802 289.389h177.03v133.37h-177.03"/><path fill="none" stroke="#000" stroke-width="4" d="M994.802 289.389h177.03m-177.03 0h177.03m0 0v133.37m0-133.37v133.37m0 0h-177.03m177.03 0h-177.03m0 0v-133.37m0 133.37v-133.37"/></g><text x="44" y="33" font-family="Helvetica, Segoe UI Emoji" font-size="36" style="white-space:pre" text-anchor="middle" transform="translate(1039.318 335.574)">Store</text><g stroke-linecap="round"><path fill="none" stroke="#364fc7" stroke-width="4" d="M914.872 364.745c12.58.03 25.17.05 60.25.13m-60.25-.13c12.98.03 25.96.05 60.25.13"/><path fill="#364fc7" fill-rule="evenodd" stroke-width="0" d="m975.122 364.875-13.61 6.31.03-12.68 13.58 6.37"/><path fill="none" stroke="#364fc7" stroke-width="4" d="M975.122 364.875c-2.85 1.31-5.69 2.63-13.61 6.31m13.61-6.31c-2.93 1.36-5.87 2.72-13.61 6.31m0 0c.01-3.76.01-7.52.03-12.68m-.03 12.68c.01-2.98.01-5.96.03-12.68m0 0c4.04 1.9 8.09 3.79 13.58 6.37m-13.58-6.37c3.09 1.45 6.18 2.9 13.58 6.37m0 0s0 0 0 0m0 0s0 0 0 0"/></g><g stroke-linecap="round"><path fill="#fd7e14" stroke-width="0" d="M366.061 296.31h177.03v133.37h-177.03"/><path fill="none" stroke="#000" stroke-width="4" d="M366.061 296.31h177.03m-177.03 0h177.03m0 0v133.37m0-133.37v133.37m0 0h-177.03m177.03 0h-177.03m0 0V296.31m0 133.37V296.31"/></g><text x="44" y="33" font-family="Helvetica, Segoe UI Emoji" font-size="36" style="white-space:pre" text-anchor="middle" transform="translate(410.577 342.496)">Store</text><g stroke-linecap="round"><path fill="none" stroke="#087f5b" stroke-width="4" d="M631.262 330.629c-25.76.06-51.53.11-79.25.18m79.25-.18c-29.26.07-58.51.13-79.25.18"/><path fill="#087f5b" fill-rule="evenodd" stroke-width="0" d="m552.012 330.809 13.58-6.37.02 12.68-13.6-6.31"/><path fill="none" stroke="#087f5b" stroke-width="4" d="M552.012 330.809c4.41-2.07 8.83-4.14 13.58-6.37m-13.58 6.37c5.01-2.35 10.02-4.71 13.58-6.37m0 0c.01 4.76.02 9.52.02 12.68m-.02-12.68c0 3.83.01 7.66.02 12.68m0 0c-5.15-2.39-10.31-4.78-13.6-6.31m13.6 6.31c-3.97-1.85-7.93-3.69-13.6-6.31m0 0s0 0 0 0m0 0s0 0 0 0"/></g><g stroke-linecap="round"><path fill="none" stroke="#364fc7" stroke-width="4" d="M560.832 384.195c17.04-.04 34.08-.07 71.27-.15m-71.27.15c25.87-.05 51.75-.11 71.27-.15"/><path fill="#364fc7" fill-rule="evenodd" stroke-width="0" d="m632.102 384.045-13.58 6.37-.03-12.68 13.61 6.31"/><path fill="none" stroke="#364fc7" stroke-width="4" d="M632.102 384.045c-3.25 1.52-6.49 3.04-13.58 6.37m13.58-6.37c-4.93 2.31-9.86 4.62-13.58 6.37m0 0c-.01-2.87-.01-5.74-.03-12.68m.03 12.68-.03-12.68m0 0c4 1.85 7.99 3.7 13.61 6.31m-13.61-6.31c5.25 2.43 10.5 4.87 13.61 6.31m0 0s0 0 0 0m0 0s0 0 0 0"/></g></svg>
