<svg xmlns="http://www.w3.org/2000/svg" viewBox="0 0 918.816 413.266"><defs/><g stroke-linecap="round"><path fill="#4c6ef5" stroke-width="0" d="m45.84 243.07 104.1-4 19.18 1.95 12.77 10.12-.28 10.95 4.47 11.01-.98 78.6-2.44 19.35-16.11 5.37-15.79-4.35-105.07 6.06-20.41-2.93-6.49-8.82-4.82-17.76-6.21-80.59 12.57-18.3 4.76-6.8 17.56-.06"/><path fill="none" stroke="#000" stroke-width="4" d="M43.34 242.14c35.34 2.2 70.72-3.08 110.35 0m-110.35 0c32.36-.65 63.37 2.69 110.35 0m0 0c26.16.43 37.29 10.59 33.34 33.34m-33.34-33.34c25.84-2.47 30.33 13.08 33.34 33.34m0 0c1.32 17.8 2.29 39.84 0 66.69m0-66.69c.34 16.81 2.54 36.5 0 66.69m0 0c.51 18.43-11.04 31.26-33.34 33.34m33.34-33.34c3.85 24.26-9.95 33.45-33.34 33.34m0 0c-29.65-.12-54.19.6-110.35 0m110.35 0c-40.52 1.02-85.07-.5-110.35 0m0 0c-24.57-3.39-33.99-8.93-33.34-33.34m33.34 33.34c-19.65 3.16-31.27-12.44-33.34-33.34m0 0c-1.86-18.63-.25-31.36 0-66.69m0 66.69c.42-15.82 1.76-31.55 0-66.69m0 0c-2.52-20.1 7.33-31.92 33.34-33.34M10 275.48c.65-26.09 7.45-30.44 33.34-33.34"/></g><g stroke-linecap="round"><path fill="#12b886" stroke-width="0" d="m761.375 266.825 114.94-.13 16.94 5.95 3.89 6.78 8.64 6.84 1.62 18.69 4.85 76.66-13.5 16.31-11.62-.18-9.31 8.14-116.17-.84-10.66-4.66-7.42-6.82-14.03-15.46 4.76-83.43 2.15-17.74 13.39-4.23 15.67 1.03"/><path fill="none" stroke="#000" stroke-width="4" d="M765.125 269.895c39.65-3.92 74.23-4.76 110.35 0m-110.35 0c26.21 3.52 56.71 2.19 110.35 0m0 0c26.18-.52 36.49 8.96 33.34 33.34m-33.34-33.34c19.22 1.97 32.15 10.87 33.34 33.34m0 0c2.82 20.99-.41 39.37 0 66.69m0-66.69c.57 23.86-.4 47 0 66.69m0 0c.07 20.15-7.77 35.11-33.34 33.34m33.34-33.34c1.16 22.33-13.21 35.44-33.34 33.34m0 0c-32.23.19-65.35-2.77-110.35 0m110.35 0c-37.42-.37-72.11-1.09-110.35 0m0 0c-22.88 2.18-31.1-8.37-33.34-33.34m33.34 33.34c-20.15-1.32-35.67-9.27-33.34-33.34m0 0c.73-13.29-2.31-31.9 0-66.69m0 66.69c1.31-18.9-1.19-35.33 0-66.69m0 0c-3.78-20.8 11.68-36.7 33.34-33.34m-33.34 33.34c-3.67-19.32 8.47-35.23 33.34-33.34"/></g><text x="41" y="32" font-family="Virgil, Segoe UI Emoji" font-size="36" style="white-space:pre" text-anchor="middle" transform="translate(57.516 286.326)">Host</text><g stroke-linecap="round"><path fill="#fab005" stroke-width="0" d="m583.014 10.67 103.82.52 16.98-1.49 9.96 10.36 11.62 12.57-3.6 13.7-1.72 68.07-2.54 23.25-16.25 5.41-10.65-.48-107.36-.57-20.79-.36-5.67-7.36-13.47-17.74 2.96-80.3 8.9-14.07 11.54-8.93 16.12-.87"/><path fill="none" stroke="#000" stroke-width="4" d="M579.824 10c24.84 1.89 50.24-.62 110.35 0m-110.35 0c43.6-.5 84.81-1.31 110.35 0m0 0c19.61 1.71 32.3 10.91 33.34 33.34M690.174 10c20.64 1.6 32.79 13.83 33.34 33.34m0 0c2.37 23.53-3.76 53.41 0 66.69m0-66.69c.21 16.99 1.84 36.95 0 66.69m0 0c1.01 22.32-12.93 35.16-33.34 33.34m33.34-33.34c.46 20.43-11.51 35.62-33.34 33.34m0 0c-33.29.66-67.2-5.32-110.35 0m110.35 0c-28.06-.78-54.34-.5-110.35 0m0 0c-20.42-1.15-35.37-9.51-33.34-33.34m33.34 33.34c-25.56-1.53-35.65-10.78-33.34-33.34m0 0c-.17-23.35.12-43.82 0-66.69m0 66.69c-1.05-16.94 1.12-36.98 0-66.69m0 0c-3.19-19.7 8.81-34.98 33.34-33.34m-33.34 33.34c-4.14-24.52 11.71-33.48 33.34-33.34"/></g><g stroke-linecap="round"><path fill="none" stroke="#364fc7" stroke-width="4" d="M761.853 251.162c-9.55-15.25-49.81-74.41-59.02-88.99m63.86 94.25c-9.81-16.17-56.56-82.47-66.63-98.61"/><path fill="none" stroke="#364fc7" stroke-width="4" d="M721.883 174.122c-1.24 1.42-4.33-8.1-18.83-19.23m19.48 21.53c-3.42-4.76-7.1-8.83-23.85-18.42"/><path fill="none" stroke="#364fc7" stroke-width="4" d="M704.833 185.542c2.38-.97 2.99-12.97-1.78-30.65m2.43 32.95c.09-7.43.06-13.95-6.8-29.84"/></g><g stroke-linecap="round"><path fill="none" stroke="#364fc7" stroke-width="4" d="M583.504 169.512c-9.21 12.43-45.13 59.84-54.96 71.68m59.63-73.49c-9.28 11.86-49.35 58.54-60.36 69.95"/><path fill="none" stroke="#364fc7" stroke-width="4" d="M540.794 213.813c-1.29 1.91-5.28 8.39-16.42 26.19m14.93-30.55c-3.1 9.97-10.32 21-10.49 27.83"/><path fill="none" stroke="#364fc7" stroke-width="4" d="M556.034 227.553c-5.34-1.99-13.54.69-31.66 12.45m30.17-16.81c-8.43 5.09-21.22 11.09-25.73 14.09"/></g><g stroke-linecap="round"><path fill="none" stroke="#c92a2a" stroke-width="4" d="M209.743 336.817c22.87.33 111.32 1.13 133.42.46m-135.35-1.46c22.47-.54 109.08-2.21 132.45-2.42"/><path fill="none" stroke="#c92a2a" stroke-width="4" d="M316.103 342.347c6.45-4.58 7.44-2.13 26.78-12.42m-28.93 13.47c6.53-2.7 18.56-6.94 24.48-10.64"/><path fill="none" stroke="#c92a2a" stroke-width="4" d="M315.803 321.837c6.71.84 7.78 8.72 27.08 8.09m-29.23-7.05c6.68 4.37 18.82 7.2 24.78 9.88"/></g><g stroke-linecap="round"><path fill="none" stroke="#364fc7" stroke-width="4" d="M340.255 283.674c-23.39-1.08-114.27-5.61-136.39-5.88m140.93 4.55c-22.76.38-112.62-1.42-135.64-2.23"/><path fill="none" stroke="#364fc7" stroke-width="4" d="M240.595 267.664c-17.61 8.83-22.9 6.81-29.67 12.91m25.3-9.8c-5.43 1.91-16.23 4.31-27.42 9.7"/><path fill="none" stroke="#364fc7" stroke-width="4" d="M240.065 288.174c-17.79.65-22.87-9.56-29.14-7.6m24.76 10.71c-5.63-3.83-16.28-7.17-26.88-10.81"/></g><text x="55" y="32" font-family="Virgil, Segoe UI Emoji" font-size="36" style="white-space:pre" text-anchor="middle" transform="translate(765.3 314.08)">Guest</text><text x="54.5" y="32" font-family="Virgil, Segoe UI Emoji" font-size="36" style="white-space:pre" text-anchor="middle" transform="translate(580.5 54.186)">Action</text><g stroke-linecap="round"><path fill="#e64980" stroke-width="0" d="m384.275 246.298 182.27 6.06 14.59 3.87 12.31 5.8 7.18 12-5.69 76.58.05 19.29-14.04 7.84-17.45 6.73-175.91 3.11-19.3-7.38-6.85-7.17-9.46-15.24-.84-84.48 11.12-18.78 7.96.39 20.91-4.75"/><path fill="none" stroke="#000" stroke-width="4" d="M387.195 249.738c68.43-5.4 142.86-3.82 177 0m-177 0c51.94-.05 106-1.67 177 0m0 0c26.3 2.66 31.54 7.69 33.5 33.5m-33.5-33.5c25.13-1.36 34.09 6.8 33.5 33.5m0 0c1.07 21.23-.6 38.62 0 67m0-67c-.04 24.14.32 47.84 0 67m0 0c-2.58 23.19-9.09 34.59-33.5 33.5m33.5-33.5c-4.48 20.09-13.86 29.6-33.5 33.5m0 0c-47.48 3.78-101.6-.05-177 0m177 0c-61.19-1.03-119.43-2.55-177 0m0 0c-23.88-1.09-33.7-11.97-33.5-33.5m33.5 33.5c-19.49-1.62-36.4-8.72-33.5-33.5m0 0c-3.83-16.95 2.05-29.83 0-67m0 67c1.47-17.41 2.27-34.21 0-67m0 0c3.68-19.52 7.28-31.97 33.5-33.5m-33.5 33.5c.92-20.29 10.62-34.89 33.5-33.5"/></g><text x="64" y="32" font-family="Virgil, Segoe UI Emoji" font-size="36" style="white-space:pre" text-anchor="middle" transform="translate(411.695 294.238)">Esdeka</text><g stroke-linecap="round"><path fill="none" stroke="#c92a2a" stroke-width="4" d="M620.105 336.667c16.77-.26 82.26-.01 97.84.23m-101.11-3c16.83.02 83.09 4.87 100.18 6.11"/><path fill="none" stroke="#c92a2a" stroke-width="4" d="M687.375 351.677c5.5-8.03 13.38-5.02 28.89-15.34m-27.91 13.81c8.32-3.64 16.8-5.24 27.54-10.29"/><path fill="none" stroke="#c92a2a" stroke-width="4" d="M688.835 331.207c5.38-3.66 12.94 3.7 27.43 5.13m-26.44-6.66c7.85 1.84 15.94 5.73 26.07 10.18"/></g></svg>
