<svg xmlns="http://www.w3.org/2000/svg" viewBox="0 0 1394.431 382.988"><defs/><g stroke-linecap="round"><path fill="#4c6ef5" stroke-width="0" d="M10 237.804h177.03v133.37H10"/><path fill="none" stroke="#000" stroke-width="4" d="M10 237.804h177.03m-177.03 0h177.03m0 0v133.37m0-133.37v133.37m0 0H10m177.03 0H10m0 0v-133.37m0 133.37v-133.37"/></g><g stroke-linecap="round"><path fill="#12b886" stroke-width="0" d="M1207.4 237.499h177.03v133.37H1207.4"/><path fill="none" stroke="#000" stroke-width="4" d="M1207.4 237.499h177.03m-177.03 0h177.03m0 0v133.37m0-133.37v133.37m0 0H1207.4m177.03 0H1207.4m0 0v-133.37m0 133.37v-133.37"/></g><text x="38" y="33" font-family="Helvetica, Segoe UI Emoji" font-size="36" style="white-space:pre" text-anchor="middle" transform="translate(60.516 283.99)">Host</text><g stroke-linecap="round"><path fill="#fab005" stroke-width="0" d="M951.309 10h177.03v133.37h-177.03"/><path fill="none" stroke="#000" stroke-width="4" d="M951.309 10h177.03m-177.03 0h177.03m0 0v133.37m0-133.37v133.37m0 0h-177.03m177.03 0h-177.03m0 0V10m0 133.37V10"/></g><g stroke-linecap="round"><path fill="none" stroke="#087f5b" stroke-width="4" d="M1290.065 218.977c-.87-47.38-1.74-94.77-2.65-144.63m2.65 144.63c-.62-34.01-1.25-68.01-2.65-144.63m0 0c-51.57.14-103.14.29-137.65.39m137.65-.39c-38.18.11-76.35.21-137.65.39M1177.935 64.397c-9.23 3.38-18.46 6.77-28.17 10.34m28.17-10.34c-6.63 2.43-13.25 4.86-28.17 10.34"/><path fill="none" stroke="#087f5b" stroke-width="4" d="M1177.985 84.917c-9.24-3.34-18.49-6.67-28.22-10.18m28.22 10.18c-6.63-2.4-13.27-4.79-28.22-10.18"/></g><g stroke-linecap="round"><path fill="none" stroke="#087f5b" stroke-width="4" d="M931.548 73.514c-45.55.09-91.1.18-191.01.37m191.01-.37c-48.55.09-97.1.19-191.01.37m0 0c-.49 50.61-.98 101.21-1.43 148.2m1.43-148.2c-.51 52.49-1.01 104.98-1.43 148.2M729.118 193.794c2.38 6.75 4.77 13.49 9.99 28.29m-9.99-28.29c2.54 7.19 5.08 14.38 9.99 28.29M749.638 193.994c-2.51 6.7-5.02 13.4-10.53 28.09m10.53-28.09c-2.67 7.14-5.35 14.28-10.53 28.09"/></g><g stroke-linecap="round"><path fill="none" stroke="#364fc7" stroke-width="4" d="M206.852 324.691c31.29 1.11 62.59 2.22 87.79 3.12m-87.79-3.12c20.35.72 40.69 1.45 87.79 3.12M266.102 337.061c10.17-3.3 20.35-6.6 28.54-9.25m-28.54 9.25c6.61-2.14 13.23-4.29 28.54-9.25M266.832 316.551c9.91 4.02 19.83 8.03 27.81 11.26m-27.81-11.26c6.44 2.61 12.89 5.22 27.81 11.26"/></g><g stroke-linecap="round"><path fill="none" stroke="#087f5b" stroke-width="4" d="M288.378 272.28c-19.3.07-38.6.15-82.35.31m82.35-.31c-17.22.07-34.44.13-82.35.31"/><path fill="none" stroke="#087f5b" stroke-width="4" d="M234.178 262.23c-6.6 2.43-13.19 4.86-28.15 10.36m28.15-10.36c-5.89 2.16-11.77 4.33-28.15 10.36"/><path fill="none" stroke="#087f5b" stroke-width="4" d="M234.258 282.75c-6.62-2.38-13.23-4.76-28.23-10.16m28.23 10.16c-5.9-2.13-11.81-4.25-28.23-10.16"/></g><text x="49" y="33" font-family="Helvetica, Segoe UI Emoji" font-size="36" style="white-space:pre" text-anchor="middle" transform="translate(1246.915 283.684)">Guest</text><text x="51" y="33" font-family="Helvetica, Segoe UI Emoji" font-size="36" style="white-space:pre" text-anchor="middle" transform="translate(988.824 56.186)">Action</text><g stroke-linecap="round"><path fill="#e64980" stroke-width="0" d="M595.767 237.038h244v134h-244"/><path fill="none" stroke="#000" stroke-width="4" d="M595.767 237.038h244m-244 0h244m0 0v134m0-134v134m0 0h-244m244 0h-244m0 0v-134m0 134v-134"/></g><text x="61" y="33" font-family="Helvetica, Segoe UI Emoji" font-size="36" style="white-space:pre" text-anchor="middle" transform="translate(656.767 283.538)">Esdeka</text><g stroke-linecap="round"><path fill="none" stroke="#364fc7" stroke-width="4" d="M1137.807 300.572c13.29.04 26.58.08 53.78.15m-53.78-.15c20.85.06 41.7.12 53.78.15M1166.287 309.852c6.26-2.26 12.51-4.51 25.3-9.13m-25.3 9.13 25.3-9.13M1166.347 291.452c6.24 2.3 12.47 4.59 25.24 9.27m-25.24-9.27c9.78 3.6 19.57 7.19 25.24 9.27"/></g><g stroke-linecap="round"><path fill="#fd7e14" stroke-width="0" d="M945.136 233.653h177.03v133.37h-177.03"/><path fill="none" stroke="#000" stroke-width="4" d="M945.136 233.653h177.03m-177.03 0h177.03m0 0v133.37m0-133.37v133.37m0 0h-177.03m177.03 0h-177.03m0 0v-133.37m0 133.37v-133.37"/></g><text x="44" y="33" font-family="Helvetica, Segoe UI Emoji" font-size="36" style="white-space:pre" text-anchor="middle" transform="translate(989.652 279.839)">Store</text><g stroke-linecap="round"><path fill="none" stroke="#364fc7" stroke-width="4" d="M864.575 308.865c11.95.42 23.9.85 57.22 2.03m-57.22-2.03c12.33.44 24.65.87 57.22 2.03M894.565 319.725c5.69-1.84 11.37-3.69 27.23-8.83m-27.23 8.83c5.86-1.9 11.73-3.8 27.23-8.83"/><path fill="none" stroke="#364fc7" stroke-width="4" d="M895.255 300.155c5.55 2.24 11.09 4.49 26.54 10.74m-26.54-10.74c5.72 2.31 11.44 4.63 26.54 10.74"/></g><g stroke-linecap="round"><path fill="#fd7e14" stroke-width="0" d="M315.593 239.617h177.03v133.37h-177.03"/><path fill="none" stroke="#000" stroke-width="4" d="M315.593 239.617h177.03m-177.03 0h177.03m0 0v133.37m0-133.37v133.37m0 0h-177.03m177.03 0h-177.03m0 0v-133.37m0 133.37v-133.37"/></g><text x="44" y="33" font-family="Helvetica, Segoe UI Emoji" font-size="36" style="white-space:pre" text-anchor="middle" transform="translate(360.108 285.803)">Store</text><g stroke-linecap="round"><path fill="none" stroke="#087f5b" stroke-width="4" d="M576.036 275.176c-25.97-.24-51.94-.49-79.89-.75m79.89.75c-29.49-.28-58.98-.56-79.89-.75M524.436 264.426c-9.19 3.25-18.39 6.5-28.29 10m28.29-10-28.29 10M524.246 284.946c-9.13-3.42-18.27-6.84-28.1-10.52m28.1 10.52c-10.37-3.88-20.74-7.77-28.1-10.52"/></g><g stroke-linecap="round"><path fill="none" stroke="#364fc7" stroke-width="4" d="M498.843 334.873c20.4 1 40.79 2.01 85.32 4.2m-85.32-4.2c30.97 1.52 61.95 3.05 85.32 4.2M555.503 347.933c6.85-2.12 13.71-4.24 28.66-8.86m-28.66 8.86c10.41-3.22 20.81-6.43 28.66-8.86M556.513 327.433c6.61 2.79 13.22 5.57 27.65 11.64m-27.65-11.64c10.04 4.23 20.08 8.45 27.65 11.64"/></g></svg>
