<svg xmlns="http://www.w3.org/2000/svg" viewBox="0 0 1489.43 489.89"><defs/><g stroke-linecap="round"><path fill="#fff" stroke-width="0" d="M10 10h1469.43v469.89H10"/><path fill="none" stroke="#000" stroke-width="4" d="M10 10h1469.43M10 10h1469.43m0 0v469.89m0-469.89v469.89m0 0H10m1469.43 0H10m0 0V10m0 469.89V10"/></g><g stroke-linecap="round"><path fill="#ced4da" stroke-width="0" d="M1249.568 289.617h177.03v133.37h-177.03"/><path fill="none" stroke="#000" stroke-width="4" d="M1249.568 289.617h177.03m-177.03 0h177.03m0 0v133.37m0-133.37v133.37m0 0h-177.03m177.03 0h-177.03m0 0v-133.37m0 133.37v-133.37"/></g><g stroke-linecap="round"><path fill="#fab005" stroke-width="0" d="M986.404 62.118h177.03v133.37h-177.03"/><path fill="none" stroke="#000" stroke-width="4" d="M986.404 62.118h177.03m-177.03 0h177.03m0 0v133.37m0-133.37v133.37m0 0h-177.03m177.03 0h-177.03m0 0V62.118m0 133.37V62.118"/></g><g stroke-linecap="round"><path fill="none" stroke="#087f5b" stroke-width="4" d="M1332 271.255c-.03-49.34-.07-98.68-.1-145.41m.1 145.41c-.03-42.11-.06-84.22-.1-145.41m0 0h-145.95m145.95 0h-145.95"/><path fill="#087f5b" fill-rule="evenodd" stroke-width="0" d="m1185.95 125.845 13.59-6.34v12.68l-13.59-6.34"/><path fill="none" stroke="#087f5b" stroke-width="4" d="M1185.95 125.845c4.61-2.15 9.23-4.3 13.59-6.34m-13.59 6.34c3.94-1.84 7.87-3.67 13.59-6.34m0 0v12.68m0-12.68v12.68m0 0c-3.37-1.57-6.74-3.14-13.59-6.34m13.59 6.34c-4.97-2.32-9.94-4.64-13.59-6.34m0 0s0 0 0 0m0 0s0 0 0 0"/></g><g stroke-linecap="round"><path fill="none" stroke="#087f5b" stroke-width="4" d="M966.477 129.265h-184.14m184.14 0h-184.14m0 0v144.14m0-144.14v144.14"/><path fill="#087f5b" fill-rule="evenodd" stroke-width="0" d="m782.337 273.405-6.34-13.59h12.67l-6.33 13.59"/><path fill="none" stroke="#087f5b" stroke-width="4" d="M782.337 273.405c-2.15-4.6-4.3-9.21-6.34-13.59m6.34 13.59c-1.59-3.4-3.18-6.81-6.34-13.59m0 0h12.67m-12.67 0h12.67m0 0c-1.88 4.05-3.77 8.09-6.33 13.59m6.33-13.59c-2.02 4.34-4.04 8.67-6.33 13.59m0 0s0 0 0 0m0 0s0 0 0 0"/></g><text x="49" y="33" font-family="Helvetica, Segoe UI Emoji" font-size="36" style="white-space:pre" text-anchor="middle" transform="translate(1289.084 335.802)">Guest</text><text x="51" y="33" font-family="Helvetica, Segoe UI Emoji" font-size="36" style="white-space:pre" text-anchor="middle" transform="translate(1023.92 108.304)">Action</text><g stroke-linecap="round"><path fill="#15aabf" stroke-width="0" d="M637.77 288.476h244v134h-244"/><path fill="none" stroke="#000" stroke-width="4" d="M637.77 288.476h244m-244 0h244m0 0v134m0-134v134m0 0h-244m244 0h-244m0 0v-134m0 134v-134"/></g><text x="61" y="33" font-family="Helvetica, Segoe UI Emoji" font-size="36" style="white-space:pre" text-anchor="middle" transform="translate(698.77 334.976)">Esdeka</text><g stroke-linecap="round"><path fill="none" stroke="#364fc7" stroke-width="4" d="M1178.836 361.08h53.3m-53.3 0h53.3"/><path fill="#364fc7" fill-rule="evenodd" stroke-width="0" d="m1232.136 361.08-13.59 6.34v-12.68l13.59 6.34"/><path fill="none" stroke="#364fc7" stroke-width="4" d="M1232.136 361.08c-4.65 2.17-9.3 4.34-13.59 6.34m13.59-6.34c-5.19 2.42-10.39 4.85-13.59 6.34m0 0v-12.68m0 12.68v-12.68m0 0c4.33 2.02 8.65 4.04 13.59 6.34m-13.59-6.34c2.96 1.38 5.91 2.76 13.59 6.34m0 0s0 0 0 0m0 0s0 0 0 0"/></g><g stroke-linecap="round"><path fill="#fd7e14" stroke-width="0" d="M986.337 284.814h177.03v133.37h-177.03"/><path fill="none" stroke="#000" stroke-width="4" d="M986.337 284.814h177.03m-177.03 0h177.03m0 0v133.37m0-133.37v133.37m0 0h-177.03m177.03 0h-177.03m0 0v-133.37m0 133.37v-133.37"/></g><text x="44" y="33" font-family="Helvetica, Segoe UI Emoji" font-size="36" style="white-space:pre" text-anchor="middle" transform="translate(1030.852 331)">Store</text><g stroke-linecap="round"><path fill="none" stroke="#364fc7" stroke-width="4" d="M906.407 360.17c12.58.03 25.17.05 60.25.13m-60.25-.13c12.98.03 25.96.05 60.25.13"/><path fill="#364fc7" fill-rule="evenodd" stroke-width="0" d="m966.657 360.3-13.61 6.31.03-12.68 13.58 6.37"/><path fill="none" stroke="#364fc7" stroke-width="4" d="M966.657 360.3c-2.85 1.31-5.69 2.63-13.61 6.31m13.61-6.31c-2.93 1.36-5.87 2.72-13.61 6.31m0 0c.01-3.76.01-7.52.03-12.68m-.03 12.68c.01-2.98.01-5.96.03-12.68m0 0c4.04 1.9 8.09 3.79 13.58 6.37m-13.58-6.37c3.09 1.45 6.18 2.9 13.58 6.37m0 0s0 0 0 0m0 0s0 0 0 0"/></g><g stroke-linecap="round"><path fill="none" stroke="#087f5b" stroke-width="4" d="M622.797 326.054c-25.76.06-51.53.11-79.25.18m79.25-.18c-29.26.07-58.51.13-79.25.18"/><path fill="#087f5b" fill-rule="evenodd" stroke-width="0" d="m543.547 326.234 13.58-6.37.02 12.68-13.6-6.31"/><path fill="none" stroke="#087f5b" stroke-width="4" d="M543.547 326.234c4.41-2.07 8.83-4.14 13.58-6.37m-13.58 6.37c5.01-2.35 10.02-4.71 13.58-6.37m0 0c.01 4.76.02 9.52.02 12.68m-.02-12.68c0 3.83.01 7.66.02 12.68m0 0c-5.15-2.39-10.31-4.78-13.6-6.31m13.6 6.31c-3.97-1.85-7.93-3.69-13.6-6.31m0 0s0 0 0 0m0 0s0 0 0 0"/></g><g stroke-linecap="round"><path fill="none" stroke="#364fc7" stroke-width="4" d="M552.367 379.62c17.04-.04 34.08-.07 71.27-.15m-71.27.15c25.87-.05 51.75-.11 71.27-.15"/><path fill="#364fc7" fill-rule="evenodd" stroke-width="0" d="m623.637 379.47-13.58 6.37-.03-12.68 13.61 6.31"/><path fill="none" stroke="#364fc7" stroke-width="4" d="M623.637 379.47c-3.25 1.52-6.49 3.04-13.58 6.37m13.58-6.37c-4.93 2.31-9.86 4.62-13.58 6.37m0 0c-.01-2.87-.01-5.74-.03-12.68m.03 12.68-.03-12.68m0 0c4 1.85 7.99 3.7 13.61 6.31m-13.61-6.31c5.25 2.43 10.5 4.87 13.61 6.31m0 0s0 0 0 0m0 0s0 0 0 0"/></g><g stroke-linecap="round"><path fill="#ced4da" stroke-width="0" d="M56.118 287.868h177.03v133.37H56.118"/><path fill="none" stroke="#000" stroke-width="4" d="M56.118 287.868h177.03m-177.03 0h177.03m0 0v133.37m0-133.37v133.37m0 0H56.118m177.03 0H56.118m0 0v-133.37m0 133.37v-133.37"/></g><text x="38" y="33" font-family="Helvetica, Segoe UI Emoji" font-size="36" style="white-space:pre" text-anchor="middle" transform="translate(106.634 334.053)">Host</text><g stroke-linecap="round"><path fill="none" stroke="#364fc7" stroke-width="4" d="M252.798 374.755h90.81m-90.81 0h90.81"/><path fill="#364fc7" fill-rule="evenodd" stroke-width="0" d="m343.608 374.755-13.59 6.34v-12.68l13.59 6.34"/><path fill="none" stroke="#364fc7" stroke-width="4" d="M343.608 374.755c-4.84 2.26-9.69 4.52-13.59 6.34m13.59-6.34-13.59 6.34m0 0v-12.68m0 12.68v-12.68m0 0c4.92 2.3 9.85 4.59 13.59 6.34m-13.59-6.34c3.98 1.86 7.97 3.72 13.59 6.34m0 0s0 0 0 0m0 0s0 0 0 0"/></g><g stroke-linecap="round"><path fill="none" stroke="#087f5b" stroke-width="4" d="M341.493 322.657h-89.52m89.52 0h-89.52"/><path fill="#087f5b" fill-rule="evenodd" stroke-width="0" d="m251.973 322.657 13.6-6.34v12.68l-13.6-6.34"/><path fill="none" stroke="#087f5b" stroke-width="4" d="M251.973 322.657c3.19-1.49 6.37-2.97 13.6-6.34m-13.6 6.34c2.84-1.33 5.69-2.65 13.6-6.34m0 0v12.68m0-12.68v12.68m0 0c-4.2-1.96-8.39-3.91-13.6-6.34m13.6 6.34c-5.2-2.42-10.39-4.84-13.6-6.34m0 0s0 0 0 0m0 0s0 0 0 0"/></g><g stroke-linecap="round"><path fill="#fd7e14" stroke-width="0" d="M361.08 288.21h177.03v133.37H361.08"/><path fill="none" stroke="#000" stroke-width="4" d="M361.08 288.21h177.03m-177.03 0h177.03m0 0v133.37m0-133.37v133.37m0 0H361.08m177.03 0H361.08m0 0V288.21m0 133.37V288.21"/></g><text x="44" y="33" font-family="Helvetica, Segoe UI Emoji" font-size="36" style="white-space:pre" text-anchor="middle" transform="translate(405.595 334.395)">Store</text><g stroke-linecap="round"><path fill="#fab005" stroke-width="0" d="M364.818 64.301h177.03v133.37h-177.03"/><path fill="none" stroke="#000" stroke-width="4" d="M364.818 64.301h177.03m-177.03 0h177.03m0 0v133.37m0-133.37v133.37m0 0h-177.03m177.03 0h-177.03m0 0V64.301m0 133.37V64.301"/></g><g stroke-linecap="round"><path fill="none" stroke="#087f5b" stroke-width="4" d="M750.274 273.439c-.04-47.64-.09-95.28-.13-145.41m.13 145.41c-.03-34.19-.06-68.38-.13-145.41m0 0h-185.78m185.78 0h-185.78"/><path fill="#087f5b" fill-rule="evenodd" stroke-width="0" d="m750.274 273.439-6.35-13.59 12.68-.01-6.33 13.6"/><path fill="none" stroke="#087f5b" stroke-width="4" d="M750.274 273.439c-2.08-4.45-4.16-8.9-6.35-13.59m6.35 13.59c-1.49-3.2-2.99-6.39-6.35-13.59m0 0c4.75 0 9.5-.01 12.68-.01m-12.68.01c3.51 0 7.03-.01 12.68-.01m0 0c-2 4.3-4.01 8.6-6.33 13.6m6.33-13.6c-1.88 4.03-3.75 8.06-6.33 13.6m0 0s0 0 0 0m0 0s0 0 0 0"/></g><g stroke-linecap="round"><path fill="none" stroke="#087f5b" stroke-width="4" d="M344.891 132.577h-184.14m184.14 0h-184.14m0 0v131.14m0-131.14v131.14"/><path fill="#087f5b" fill-rule="evenodd" stroke-width="0" d="m344.891 132.577-13.59 6.34v-12.68l13.59 6.34"/><path fill="none" stroke="#087f5b" stroke-width="4" d="M344.891 132.577c-3.24 1.51-6.48 3.02-13.59 6.34m13.59-6.34c-3.46 1.61-6.91 3.22-13.59 6.34m0 0v-12.68m0 12.68v-12.68m0 0c4.7 2.2 9.41 4.39 13.59 6.34m-13.59-6.34c3.57 1.67 7.15 3.34 13.59 6.34m0 0s0 0 0 0m0 0s0 0 0 0"/></g><text x="51" y="33" font-family="Helvetica, Segoe UI Emoji" font-size="36" style="white-space:pre" text-anchor="middle" transform="translate(402.333 110.487)">Action</text></svg>
