<svg viewBox="-10 -10 50 56" xmlns="http://www.w3.org/2000/svg"><path fill="#f0f" d="M-7.6-7.125c-1.42.064-2.626 1.237-2.648 2.722a.75.75 0 0 0 0 .002c-.042 3.121.55 8.713 4.74 13.217 3.057 3.287 6.043 4.36 8.268 4.55 2.225.192 3.744-.507 3.744-.507a.75.75 0 0 0 .36-.996.75.75 0 0 0-.999-.361s-1.103.532-2.976.37c-1.873-.16-4.46-1.024-7.299-4.077-3.814-4.1-4.377-9.271-4.338-12.176a1.252 1.252 0 0 1 1.496-1.225l-.002-.002c1.97.368 4.982 1.022 7.729 1.979C3.22-2.673 5.67-1.343 6.522-.012c1.795 2.81 1.707 6.031 1.482 7.781L.402.562a.75.75 0 0 0-1.06.03.75.75 0 0 0 .027 1.06l3.653 3.46H-.646a.75.75 0 0 0-.75.75.75.75 0 0 0 .75.75h5.25l2.62 2.485a9.818 9.818 0 0 1 3.003 6.04l.543 4.878a.75.75 0 0 0 .828.662.75.75 0 0 0 .662-.828l-.008-.076a.75.75 0 0 0 .012-.03c0-4.072 1.469-8.007 4.137-11.085l2.947-3.403a.75.75 0 0 0-.076-1.056.75.75 0 0 0-1.057.074l-2.95 3.402c-.18.209-.352.423-.52.64-.387-1.348-.797-3.704.167-5.981.431-1.018 1.978-2.299 3.842-3.36 1.864-1.06 4.006-1.957 5.55-2.543v.002a1.25 1.25 0 0 1 1.7.987c.343 2.311.38 6.024-1.834 9.394-1.787 2.723-3.647 3.709-5.047 4.072-1.4.364-2.283.106-2.283.106a.75.75 0 0 0-.922.521.75.75 0 0 0 .522.924s1.319.353 3.06-.1c1.742-.452 3.962-1.71 5.924-4.699 2.495-3.8 2.437-7.92 2.062-10.445a.75.75 0 0 0 0-.002.75.75 0 0 0 0-.002.75.75 0 0 0 0-.002c-.202-1.288-1.274-2.204-2.484-2.322-.403-.04-.822.01-1.228.164-1.588.602-3.785 1.517-5.762 2.642-1.977 1.125-3.772 2.405-4.48 4.079-1.522 3.594-.233 7.188.144 8.097a19.18 19.18 0 0 0-2.088 4.686c-.3-1.965-1.075-3.817-2.289-5.366.273-1.202 1.1-5.899-1.514-9.988C6.53-2.784 3.835-4.047.97-5.045c-2.867-.999-5.935-1.662-7.947-2.037a.75.75 0 0 0-.002 0 2.735 2.735 0 0 0-.62-.043zm19.1 29.619a.75.75 0 0 0-.75.75v1.508a5.24 5.24 0 0 1-5.246 5.246H-.502a3.76 3.76 0 0 0-3.748 3.746.75.75 0 0 0 0 .002 3.76 3.76 0 0 0 3.748 3.748H24c.646 0 1.035.215 1.315.53.279.313.435.761.435 1.22 0 .458-.156.906-.435 1.22-.28.315-.669.53-1.315.53H-3.5a.75.75 0 0 0-.75.75.75.75 0 0 0 .75.75H24c1.021 0 1.882-.41 2.436-1.033.554-.624.814-1.426.814-2.217 0-.792-.26-1.594-.814-2.217-.554-.623-1.415-1.033-2.436-1.033H-.502a2.237 2.237 0 0 1-2.248-2.248c0-1.25.998-2.248 2.248-2.248h6.006c3.716-.003 6.744-3.03 6.746-6.746v-1.508a.75.75 0 0 0-.75-.75z"/></svg>
